<mxfile host="app.diagrams.net" modified="2024-03-20T16:46:11.908Z" agent="Mozilla/5.0 (X11; Linux x86_64) AppleWebKit/537.36 (KHTML, like Gecko) Chrome/120.0.0.0 Safari/537.36" etag="MIelUXumS28Tb_4zyQnI" version="24.0.7" type="github">
  <diagram name="Page-1" id="bdjmN8I5D_qIehQ8QgfU">
    <mxGraphModel dx="1163" dy="661" grid="1" gridSize="10" guides="1" tooltips="1" connect="1" arrows="1" fold="1" page="1" pageScale="1" pageWidth="1169" pageHeight="827" math="0" shadow="0">
      <root>
        <mxCell id="0" />
        <mxCell id="1" parent="0" />
        <mxCell id="NnbLPP3cd3mvAa81_L1c-1" value="Utilisatrice /&lt;div&gt;Utilisateur&lt;/div&gt;" style="shape=umlActor;verticalLabelPosition=bottom;verticalAlign=top;html=1;outlineConnect=0;labelBackgroundColor=none;" parent="1" vertex="1">
          <mxGeometry x="90" y="188" width="30" height="60" as="geometry" />
        </mxCell>
        <mxCell id="NnbLPP3cd3mvAa81_L1c-2" value="" style="endArrow=classic;html=1;rounded=0;flowAnimation=1;labelBackgroundColor=none;fontColor=default;entryX=0;entryY=0.5;entryDx=0;entryDy=0;strokeColor=#009900;" parent="1" target="NnbLPP3cd3mvAa81_L1c-3" edge="1">
          <mxGeometry width="50" height="50" relative="1" as="geometry">
            <mxPoint x="130" y="224" as="sourcePoint" />
            <mxPoint x="190" y="222" as="targetPoint" />
          </mxGeometry>
        </mxCell>
        <mxCell id="NnbLPP3cd3mvAa81_L1c-3" value="Site Web" style="rounded=1;whiteSpace=wrap;html=1;labelBackgroundColor=none;" parent="1" vertex="1">
          <mxGeometry x="169" y="197" width="130" height="53" as="geometry" />
        </mxCell>
        <mxCell id="NnbLPP3cd3mvAa81_L1c-4" value="L&#39;utilisateur accÃ¨de&amp;nbsp;&lt;div&gt;au site Internet&lt;br&gt;&lt;/div&gt;" style="text;html=1;align=center;verticalAlign=middle;resizable=0;points=[];autosize=1;strokeColor=none;fillColor=none;labelBackgroundColor=none;" parent="1" vertex="1">
          <mxGeometry x="169" y="266" width="130" height="40" as="geometry" />
        </mxCell>
        <mxCell id="NnbLPP3cd3mvAa81_L1c-6" value="" style="shape=image;verticalLabelPosition=bottom;labelBackgroundColor=none;verticalAlign=top;aspect=fixed;imageAspect=0;image=data:image/png,iVBORw0KGgoAAAANSUhEUgAAAVoAAAB9CAYAAADjj6tMAAAABHNCSVQICAgIfAhkiAAAABl0RVh0U29mdHdhcmUAZ25vbWUtc2NyZWVuc2hvdO8Dvz4AAAAldEVYdENyZWF0aW9uIFRpbWUAd28gMjAgbXJ0IDIwMjQgMTA6NTQ6MjXYHWBAAAAWHUlEQVR4nO3deVyN6QIH8J/SdCNjmUqLcVAZtFwUk7EUqrmFQXYmdyzDGEYS91qHLGMNMxhlZiSjJHKNtQ1XC1niWlIGl0GWaFqEalruH25Hb+97Tid6S+P3/Xz64zzned/zvGf5nafnfZ731CkpKSkBERHJRqumG0BE9GfHoCUikhmDlohIZgxaIiKZMWiJiGTGoCUikhmDlohIZgxaIiKZMWiJiGTGoCUikhmDlohIZgxaIiKZMWiJiGTGoCUikhmDlohIZgxaIiKZMWiJiGTGoCUikhmDlohIZgxaIiKZMWiJiGTGoCUikhmDlohIZgxaIiKZMWiJiGTGoCUikhmDlohIZgxaIiKZMWiJiGTGoCUikhmDlohIZgxaIiKZMWiJiGRWtyp20m3TqarYTY2Kn/RhTTeBiP6k2KMlIpIZg5aISGYMWiIimTFoiYhkxqAlIpIZg5aISGYMWiIimTFoiYhkxqAlIpIZg5aISGZ1SkpKSmq6EUREf2bs0RIRyYxBS0QkMwYtEZHMGLT0xvnhh81wdOwOW1trzJjhg99//72mm0T0WngyjN4oP/+8DXPnzhGU9e7tjMDArTXTIKIqUCUX/iZpJ0+erPQ2FhYWMDQ0lKE1tUNS0llR2enTtf/C8vR2Y9DKaNiwIZXexs9vDYYMGSpDa2qHpk2NRWXGxiY10BL6M/LwGIizZ88obxsZGeHs2XOyPy7HaOmNMn785zAyMlLe1tbWxsyZ/6jBFhG9PvZo6Y1iaGiI2Nh4REVFITMzEy4uzmjW7P2abhbRa2HQViMrK2u4urqqrdOunVU1tebNVa9ePQwYMKCmm0FUZRi01cjGxgbe3tMrtU1S0lnExsYKyjw9R8PAwAD5+fk4fvzfSExMxPXr12BoaARLS0t07NgRnTtr/qu+WVlZiI+Pw4ULF/Dbb7eQlZUFbe26cHJywuDBQ/Dee+9pvK+ioiIcOLAf58+fR3p6OrKzs/Hee01gYmIKZ2dndOrUWe326enpCA7eLihzdHRCx44d1W4XFRWJhIQE3L9/DwUFf6B58+awtraGq+vHaNSoEQAgOHg70tPTlds0atQIY8aMFewnOjoKly9fFpR5eU2DlpYWnjx5gsjICCQlJSEt7S5MTc1gaWkJB4cusLKq3BdkXl4ewsN3IyUlBenpD/Hs2XMYGhrCzMwMgwcPQYsWLdRun5ycjKioSEHZkCFD0KzZ+ygoKMDRo0dx6tSL90Xjxo3RsmUr9O8/AK1atZLc34MHD7BrVxiuX7+GzMxMtGzZCpaWlujSpQvMzS0qdWwFBQUIDw/HlSvJSE9/iNzcpzAyMoKpqSk8PAbB3Nxc7fYpKSmIiDgseWyFhYWIi4vDiRMJuHo1FU2aNIGlZWvY2Nige/ceqFOnjuQ+v/9+I/Lz83HvXpqg/OnTp1i7do2grLKfUU1wepeMmjdvJrg9fPgIrFy5qlL7CAjwx9KlSwRl0dFH8J//nMfSpUuQlZUluZ2joyPWr9+oDBkpGRkZ+OabpdizJxxFRUWSderWrQtPz9GYM2cudHV11bY1PHw3VqxYjgcPHqisY2NjC19fX9jbd5K8//LlS3B3dxOULViwEOPGjZesf+XKFfj4eCM5OVny/tIx3kmTvoS7uxuSk1+GqEKhQFxcgqD+zJkzsHNnqKDsxo2b2LTpe2zYsB55eXmSjzNy5CgsWrQY77zzjuT9pYqLi7Fhw3ps3hyAnJwclfXc3Nwwa9YctGzZUvL+XbvC4OMjDISdO3fh/v17WLx4ETIyMiS3c3Z2weLFS2BmZgYAyMnJga/vQoSH70ZxcbHkNmPGjMH8+QtQt676fllJSQm+/34jAgL8Vb4vAcDFxRWzZ8+GhYWl5P179oRj2jQvQVloaBiys7OxYMF8le8vOzs7bNy4CaampqL72rVri9zcJ2rbX+r27bsa1auMKunRdtv05k2/iZ+keY+utgkO3o6tWwPV1jl+/DgGDuyP8PB/oUmTJqL78/LyMHLkcKSkpKjdT2FhIQIDtyAl5QpCQkIlP2yFhYVYuHABtm0LqrDtly5dxKBBHpgwYSLmzJmrsgeiifj4OIwbNxbPnz9XWaeoqAjLly8T9GTVkWrP4sWLKny+Q0KCcf36dYSG7lQZSE+ePMHEiRMQHx9XYTsOHz6MI0eOYOFCX3z6qadGbd+8OQBHjsSorRMTE43ExJMID/8XDAwM0KePm9ovRgAIDAzE9es3EBS0TeWx5ebmYvLkSTh27FiF7YyOjsKxY0cxf/4CjBkzRqKG+DWIjIxAYOAWtftNSkpCv359sG/ffpiZNVNbt7px1kEtVNGHvtSNGzcwa5b0Gftvv11XYciWlZiYiHXr1kreN336NI1CtlRJSQkCAvyxZctPGm9TXnLyZXz22d/VhmxZW7b8hGvXftWobeVp+nyfPn1K5XNUVFQET89RGoVsqYKCAsyZMxsnTiRUXBmoMGRL5ebm4osvJsDLa2qFIVsqLi4W3333reR9RUVFGDPm7xqFbKnCwkIsWDBfxTbi16CikC316NEjTJ06VfJ1rEkco63Fhg4dBgcHBxgYGOL69WvYti0It27dEtSJiIjA2bNnBP+ql5SUiMLDyMgIAQGbYWdnj/v37yMmJhorV65Adna2sk5AgD/Gj/9cMByxY8cO7N27V7AvHR0dfP31AvTu3VvZtk2bNmH//n2CesuXL0Pv3s4VjkeW9/z5c0ycOAEFBQWi+0xNTWFrawuFogUuX76M8+fP4dmzZwAgWV9T2traGDt2HGxtbdGgQQOkpqZi8+YA0fJgf/9N8PQcjaZNmwrKlyxZjHPnhPM1DQwMsGzZcnTsaAc9PT2kpqZg6dIlSEpKEtSbNs0Lx44dR/369TVqq0KhgJ2dPYyNjXHr1i0kJMQLXkcAuHnzJm7evKm8bW1tA1tbG7z7bkNcvZqKuLg4FBYWCrbZsGE9Ro4cBWNj4VznlStX4NQp4X+1jRs3xrJly2Fv3wn169dHamoKli9fJqrn4zMdx4/HokGDBhodm5ubG3r16g1jYxPcunUToaGhguEgADhz5jQiIyPxt7/9TVk2ZcoU5OfnY+fOUNy7d09Z3qBBA4wf/7lGj/06GLTV6NKlS6KB97JcXV1hZWWt0b5Wr/bD0KHDlLednJwwcuQoeHp+ijNnTgvqhoWFCYL28ePHePr0qaDOxIlfwM7OHgBgYmICT8/RMDExwdixL/+1y8/Px4kTCXB37wPgRWCvWyc8nrp16yIsbDfs7OyUZdbWNti48Xu0bt0afn6rBfv76acfsXixcAy6IgcO7Mft27cFZbq6uli7dh369u0nKC8sLMSiRb4a90qlekJaWloIC9slOJHXq1dveHgMgofHQNy9e0dZXlBQgH37fsHnn09QlmVmZiIoaKtgnwYGBjh48DBMTF4uxrC374Tdu/fgq6+m4MCB/cryBw8eYM+ecHh6jq6w/V5e0zBtmje0tbWVZVlZWZgyZTJiY49LbrNhw0Z88kl/Qdnt27fh6TlKEMaFhYX45Ze9mDjxC2VZTk6O6D+TRo0a4eDBQ4JpeXZ29ti5cxemT/fGnj3hyvLHjx9h585QQdip6o3+85+zMHnyFOVtR0dHjBgxEhMmjMfRo0cFdcPCdgqC9ssvJwMA4uLiBEH77rvvynLyqzwOHVSj5OTLWLt2jcq/S5cuabSfrl27CkK2VL169bB06Tei8jNnzghu6+vri+qU72kAQM+eveDtPV3wV3blVnx8HO7fvy/YZvp0H0HIluXlNU0Z5qX27v2XqOdUkV27wkRlixYtEYUs8CL4Fy1aLHrcyvjsszGSsyWMjY0xe/ZsUXnZlUfAi5M75Y/Rz2+tIGRLaWtrw89vjWimR1jYzgrbaW1tAx+fGYKQBV4E3/LlyyXHVwcPHiIKWQBo3rw55s6dJyo/e1a4RPqXX/YiPz9fULZixSrJuc9aWlpYsWKlqLe/Y8cO1Qf1f1ZWVsqwLOudd97B0qXfiI6t/GtQ0xi0tZC6Jbpt2rTBBx98IChLT38ouK2npyea5hMVFYlx48bixIkE5QwEbW1tUdCWDdHExETR4w8bNlxt23v37i24nZ2djStXrqjdpqySkhLRh93U1BTDhom/eMqaMWOGxo9RnofHIJX3ubv3EQVb+XHP8s+TgYEhnJycVO5TT08PH37oICi7cOGCIKylen2DBqluZ7Nm78PeXvxl4+HhoXIbV9ePRbMoyvYGAfGx6evrq50rrquri65duwrKrl37FZmZmSq3AYCBAz1Unjg1M2uGzp2FX4RZWVn4448/1O6zOnHooBaqaF6jubkFrl69qrydm5srqvNiytMXgrLo6ChER0dBX78BevToARcXFzg6OsHAwEDyccr3ZgHAzq6DJocgkJaWBltbW43qZmRkiHqHDg5doKWlvs/w0Uddoa+vL/lclCX1YVY371NbWxvm5ub49deXJ9pycoTTiMo/T48fP4JCUfnVbnfu3FFO95Jup/r3hYWFpSgYK9rmgw/a4NKli8rb5adtlT+23NxctGypULtPKffu3UPjxo0BSB+bhUXFx3bixAlBWU5OTqXmgMuJPdpqNHz4CNy+fVfl3/DhIzTaT0XzWevVqye4XVJSIuoB9enTFwsX+kq+qXNzn+DQoYPw9p4Ge/uOGDt2DNLSxHMLHz3SbMpURcr3uNV5/PixqEyTD1OdOnUkL1hTnlRPsbLPd/mz5pU5PnXKPt+v0k49Pb3X3qb8XNuqeg+UfV2r5jUASkqk5wXXBAbtW2zs2HGIiIhC//4D8Je//EWyTnFxMWJiotGzp5PgBA0Ajc+CV0RHR/0k/7KkPlBPn6rvpVa2XlWrX188Jv4qKvM8VZeqew/oVMl+3lQcOnjLtW3bFuvXb0BBQQFOnz6F+Ph4HDkSIxh6AF4scJg69St06NBBORm8/EkNLS0tbN8eDG3tyr2tWrdurXHd8o8JAFevVjw/Njs7W+NFC1XN2Lgpbty4rrzdrNn78PNTPftElbZt21Zls6pE06ZNBWPsTZs2xXffbaj0fjQdOqqtGLQE4MXZ227duqNbt+6YNWs2bty4gVWrVuLQoYPKOoWFhThw4IByeo9C0UKwj+LiYujp6b3WGf6K6OrqwtDQEI8ePVKWJSWdRVpamnJZqZTDhw+pXGIqN4VCgYSEl4sO0tLuwsbGRnL2R21T/j3w8OFDtGnTRjneSi9USdD+mZe7/hnt2hUmmiK1bNkKwUkfc3Nz+PsHwN6+o6AnWHZBxCeffAJf34WCMbU1a9Zg+/ZgybHf5OTL8PVdKChTKFpg1arVorrq9Ov3iWjuppfXVISE7JC81sCdO7dF14uoTgMGeCAkJER5+8X847WYN2++ZP2IiAhs2fKjoKxbt+6YOtVLsn5NGjBgoGiO8po1firnRh85EoOAAH9B2YcfOsDH59VnhVSGjo4w8lRdu6KqcYz2LdSkSRMkJiYK/tauXSM6CXHnzm3RhU/KrgozMDCEm5vwAjBxcbGYNGki0tKEV0l68OABpkyZLHrcygwblJKaQnb69Cn07euOuLiXVzrLz89HSEgwPv74Y9HKqOrk4OAgmrmweXMAFi3yFbUrOfkyZs70ET1P7du3r84ma6xjx46iIY2goK2YP3+eaMpWamoqfHymi46tOocNmjQRnjjNyMgQzVaQA4cOqtGRIzEYOnSw2jpffjlF7RzLquDk1BPm5haCccN9+37BtWu/Ytiw4VAoFDh79iyCgoJE3/idOgmvuvX11wsRGxsrmDZ16NAhREREwMHBAVZW1rhw4QLOnz8nmtdoYmKC0aP/Xun2t23bFiNHjkJISLCgPDU1FaNGjUTDhg2hULRASsqVN2Yu5cqVqzBokHDO6o8//oCff96Grl27QaFQ4Ny5JFy8eFH0hefg4IAePRyrs7mVsmLFKvTv30/Q7qCgrQgJCUa3bt3QqpU5zp1LwoULF0TDNx06dICLi/prNFclW1tbHDx4QFA2fPjLeek6Ojq4ceNm+c1eG4O2Gj169EgwtiilOn4vTFtbG6tXr8aIEcMFQZqSkoKFCxeo3K5Vq1bo2bOXoMzU1BTLli3H1KlfCT5oxcXFOHHihMregr5+AwQGBlU4bUeVefPmIy4uDnfu3Bbdl52djYsXLwjKjI2NUbeujmC5bHXq1KkzvL2ni5Zg5+fn4+jRIyq3a9bsfWzcuEnu5r2W9u3bY+bMf2DlyhWC8j/++APHjh1TebEZExMT+Ptvro4mKg0aNBhr1viJVrPJjUMHbyk7O3sEBf2s8S/utm7dGsHBOyTHXvv3H4A9e/ZCodBsonqnTp0RFRWFdu3aVarNZenr6+PQocMa9YZMTEwQHByChg0bvvLjVQVv7+kICPhB8rKVUvr3H4DIyKha8avIU6Z8hS1bAlUubinP3b0PoqJiJJchy8nIyAjffrtetJqvlFxX/WLQvsW6dOmC2Nh4eHlNQ/v27UWrq3R1deHo6IjVq/0QGRmt9qy+nZ0djh07jnXrvkWbNm1E9xsYGMLZ2QX+/gHYvTu8Sn4HrGHDhvjppy0IDNwKGxvxOJ+Ojg4+/dQTMTFHYWlZ+bFgObi5uSEh4SR8fRdLXqDazMwMAwYMwO7d4Vi/foPGV7V6Ezg7uyAh4SSWLFkqeT1YU1NT9O3bD6GhYfD3D6ixLz53d3fs27cf3t7T0aOHo+DHQCtaYfiq+AsLpFRYWIi7d+8iIyMDTZsawdTU7JXfeDk5OUhPf4icnCcwNzevlg9VdnY27t27p1wm2rp1a8GqsZ49nQTj0tbWNjh06LBoP9Xp999/x8OHD1FQUABLS0vJBRm1VWZmJh4+fIi8vDxYWlpW2eKG2ohBS2+F4uJiWFm1FVwe0tnZBVu2aHb5RKLXwZNhVOucPHkSa9f6Ccq8vKaha9duKrc5fvy46Bq8mo4pE70uBi3VOoaGBqKrUD17tgw7doRKjmk+efIEX38tvraqq+vHsrWRqCyeDKNax8LCEn/9618FZRcvXoCzcy9s3LgBycnJyMvLQ1paGg4fPgxn51747bffBPVNTEzg4CC85iuRXDhGS7XSmTOnMXjwoFeejhMaGoaPPvqoiltFJI09WqqVOnXqjAULFlZ6uzp16mDu3HkMWapWVdKj7bZJ/HtTtQ0vjFM7xcXFYv78efjvf/9bYd2WLVti9Wo/yd//IpITT4ZRrda9ew8cPfpvJCYmIjLyMKKjY5TLbBs0aAAjIyO0aNESI0aMgIuLq8rfnSKSE3u0/8ceLRHJhWO0REQyY9ASEcmMQUtEJDMGLRGRzBi0REQyY9ASEcmMQUtEJDMGLRGRzHhRGSIimbFHS0QkMwYtEZHMGLRERDJj0BIRyYxBS0QkMwYtEZHMGLRERDJj0BIRyYxBS0QkMwYtEZHMGLRERDJj0BIRyYxBS0QkMwYtEZHMGLRERDJj0BIRyYxBS0QkMwYtEZHMGLRERDJj0BIRyYxBS0QkMwYtEZHMGLRERDJj0BIRyYxBS0QkMwYtEZHMGLRERDJj0BIRyYxBS0QkMwYtEZHMGLRERDL7H7SWuolmUBaXAAAAAElFTkSuQmCC;" parent="1" vertex="1">
          <mxGeometry x="179" y="203" width="110" height="39.74" as="geometry" />
        </mxCell>
        <mxCell id="jSKqxpYO9cEE2zhA91dm-1" value="Je suis parent Ã©tranger, quelles son les mesures Ã  prendre pour inscrire mon enfant dans une Ã©cole?" style="text;html=1;align=center;verticalAlign=middle;resizable=0;points=[];autosize=1;strokeColor=none;fillColor=none;fontSize=17;fontStyle=3;fontColor=#009900;" vertex="1" parent="1">
          <mxGeometry x="150" y="30" width="780" height="30" as="geometry" />
        </mxCell>
        <mxCell id="jSKqxpYO9cEE2zhA91dm-6" value="" style="edgeStyle=orthogonalEdgeStyle;rounded=0;orthogonalLoop=1;jettySize=auto;html=1;strokeColor=#009900;" edge="1" parent="1" source="jSKqxpYO9cEE2zhA91dm-2" target="jSKqxpYO9cEE2zhA91dm-5">
          <mxGeometry relative="1" as="geometry" />
        </mxCell>
        <mxCell id="jSKqxpYO9cEE2zhA91dm-8" value="" style="edgeStyle=orthogonalEdgeStyle;rounded=0;orthogonalLoop=1;jettySize=auto;html=1;strokeColor=#FF8000;" edge="1" parent="1" source="jSKqxpYO9cEE2zhA91dm-2" target="jSKqxpYO9cEE2zhA91dm-7">
          <mxGeometry relative="1" as="geometry" />
        </mxCell>
        <mxCell id="jSKqxpYO9cEE2zhA91dm-2" value="&lt;div&gt;&lt;br&gt;&lt;/div&gt;Comment chercher ?" style="rhombus;whiteSpace=wrap;html=1;verticalAlign=top;labelBackgroundColor=none;" vertex="1" parent="1">
          <mxGeometry x="384" y="182.87" width="80" height="80" as="geometry" />
        </mxCell>
        <mxCell id="jSKqxpYO9cEE2zhA91dm-4" value="" style="endArrow=classic;html=1;rounded=0;exitX=1;exitY=0.5;exitDx=0;exitDy=0;entryX=0;entryY=0.5;entryDx=0;entryDy=0;strokeColor=#009900;" edge="1" parent="1" source="NnbLPP3cd3mvAa81_L1c-3" target="jSKqxpYO9cEE2zhA91dm-2">
          <mxGeometry width="50" height="50" relative="1" as="geometry">
            <mxPoint x="600" y="260" as="sourcePoint" />
            <mxPoint x="650" y="210" as="targetPoint" />
          </mxGeometry>
        </mxCell>
        <mxCell id="jSKqxpYO9cEE2zhA91dm-24" value="" style="edgeStyle=orthogonalEdgeStyle;rounded=0;orthogonalLoop=1;jettySize=auto;html=1;strokeColor=#FF8000;" edge="1" parent="1" source="jSKqxpYO9cEE2zhA91dm-5" target="jSKqxpYO9cEE2zhA91dm-23">
          <mxGeometry relative="1" as="geometry" />
        </mxCell>
        <mxCell id="jSKqxpYO9cEE2zhA91dm-5" value="Choisissez une page dans laquelle continuer la recherche" style="whiteSpace=wrap;html=1;verticalAlign=top;labelBackgroundColor=none;" vertex="1" parent="1">
          <mxGeometry x="540" y="192.87" width="140" height="60" as="geometry" />
        </mxCell>
        <mxCell id="jSKqxpYO9cEE2zhA91dm-13" value="" style="edgeStyle=orthogonalEdgeStyle;rounded=0;orthogonalLoop=1;jettySize=auto;html=1;strokeColor=#FF8000;" edge="1" parent="1" source="jSKqxpYO9cEE2zhA91dm-7" target="jSKqxpYO9cEE2zhA91dm-12">
          <mxGeometry relative="1" as="geometry" />
        </mxCell>
        <mxCell id="jSKqxpYO9cEE2zhA91dm-7" value="Aller a la barre de recherche" style="whiteSpace=wrap;html=1;verticalAlign=top;labelBackgroundColor=none;" vertex="1" parent="1">
          <mxGeometry x="366" y="332.87" width="116" height="37.13" as="geometry" />
        </mxCell>
        <mxCell id="jSKqxpYO9cEE2zhA91dm-10" value="barre de&amp;nbsp;&lt;div&gt;recherche&lt;/div&gt;" style="text;html=1;align=center;verticalAlign=middle;resizable=0;points=[];autosize=1;strokeColor=none;fillColor=none;" vertex="1" parent="1">
          <mxGeometry x="350" y="278" width="80" height="40" as="geometry" />
        </mxCell>
        <mxCell id="jSKqxpYO9cEE2zhA91dm-11" value="site web" style="text;html=1;align=center;verticalAlign=middle;resizable=0;points=[];autosize=1;strokeColor=none;fillColor=none;" vertex="1" parent="1">
          <mxGeometry x="465" y="188" width="70" height="30" as="geometry" />
        </mxCell>
        <mxCell id="jSKqxpYO9cEE2zhA91dm-15" value="" style="edgeStyle=orthogonalEdgeStyle;rounded=0;orthogonalLoop=1;jettySize=auto;html=1;strokeColor=#FF8000;" edge="1" parent="1" source="jSKqxpYO9cEE2zhA91dm-12" target="jSKqxpYO9cEE2zhA91dm-14">
          <mxGeometry relative="1" as="geometry" />
        </mxCell>
        <mxCell id="jSKqxpYO9cEE2zhA91dm-12" value="recherche par mots-clÃ©s" style="whiteSpace=wrap;html=1;verticalAlign=top;labelBackgroundColor=none;" vertex="1" parent="1">
          <mxGeometry x="364" y="400.57" width="120" height="43.44" as="geometry" />
        </mxCell>
        <mxCell id="jSKqxpYO9cEE2zhA91dm-17" value="" style="edgeStyle=orthogonalEdgeStyle;rounded=0;orthogonalLoop=1;jettySize=auto;html=1;strokeColor=#009900;" edge="1" parent="1" source="jSKqxpYO9cEE2zhA91dm-14" target="jSKqxpYO9cEE2zhA91dm-16">
          <mxGeometry relative="1" as="geometry" />
        </mxCell>
        <mxCell id="jSKqxpYO9cEE2zhA91dm-19" value="" style="edgeStyle=orthogonalEdgeStyle;rounded=0;orthogonalLoop=1;jettySize=auto;html=1;exitX=0;exitY=0.5;exitDx=0;exitDy=0;entryX=1;entryY=0.5;entryDx=0;entryDy=0;strokeColor=#FF0000;" edge="1" parent="1" source="jSKqxpYO9cEE2zhA91dm-14" target="jSKqxpYO9cEE2zhA91dm-18">
          <mxGeometry relative="1" as="geometry">
            <mxPoint x="384.03499999999985" y="643.6" as="sourcePoint" />
            <mxPoint x="315" y="642.8" as="targetPoint" />
          </mxGeometry>
        </mxCell>
        <mxCell id="jSKqxpYO9cEE2zhA91dm-14" value="&lt;div&gt;&lt;br&gt;&lt;/div&gt;rÃ©sultats trouvÃ©s ?" style="rhombus;whiteSpace=wrap;html=1;verticalAlign=top;labelBackgroundColor=none;" vertex="1" parent="1">
          <mxGeometry x="384" y="480.56500000000005" width="80" height="80" as="geometry" />
        </mxCell>
        <mxCell id="jSKqxpYO9cEE2zhA91dm-40" value="" style="edgeStyle=orthogonalEdgeStyle;rounded=0;orthogonalLoop=1;jettySize=auto;html=1;" edge="1" parent="1" source="jSKqxpYO9cEE2zhA91dm-16" target="jSKqxpYO9cEE2zhA91dm-39">
          <mxGeometry relative="1" as="geometry" />
        </mxCell>
        <mxCell id="jSKqxpYO9cEE2zhA91dm-16" value="trouver le lien pertinent dans les rÃ©sultats" style="whiteSpace=wrap;html=1;verticalAlign=top;labelBackgroundColor=none;" vertex="1" parent="1">
          <mxGeometry x="524" y="493.56500000000005" width="120" height="54" as="geometry" />
        </mxCell>
        <mxCell id="jSKqxpYO9cEE2zhA91dm-18" value="pense Ã  un nouveau mot clÃ©" style="whiteSpace=wrap;html=1;verticalAlign=top;labelBackgroundColor=none;" vertex="1" parent="1">
          <mxGeometry x="220" y="498.57000000000005" width="95" height="43.43" as="geometry" />
        </mxCell>
        <mxCell id="jSKqxpYO9cEE2zhA91dm-20" value="" style="endArrow=classic;html=1;rounded=0;entryX=0;entryY=0.5;entryDx=0;entryDy=0;strokeColor=#FF0000;exitX=0.5;exitY=0;exitDx=0;exitDy=0;" edge="1" parent="1" source="jSKqxpYO9cEE2zhA91dm-18">
          <mxGeometry width="50" height="50" relative="1" as="geometry">
            <mxPoint x="267.5" y="499.57000000000016" as="sourcePoint" />
            <mxPoint x="364" y="423.28999999999985" as="targetPoint" />
            <Array as="points">
              <mxPoint x="268" y="423" />
            </Array>
          </mxGeometry>
        </mxCell>
        <mxCell id="jSKqxpYO9cEE2zhA91dm-21" value="no" style="text;html=1;align=center;verticalAlign=middle;resizable=0;points=[];autosize=1;strokeColor=none;fillColor=none;" vertex="1" parent="1">
          <mxGeometry x="330" y="498" width="40" height="30" as="geometry" />
        </mxCell>
        <mxCell id="jSKqxpYO9cEE2zhA91dm-22" value="oui" style="text;html=1;align=center;verticalAlign=middle;resizable=0;points=[];autosize=1;strokeColor=none;fillColor=none;" vertex="1" parent="1">
          <mxGeometry x="470" y="498" width="40" height="30" as="geometry" />
        </mxCell>
        <mxCell id="jSKqxpYO9cEE2zhA91dm-26" value="" style="edgeStyle=orthogonalEdgeStyle;rounded=0;orthogonalLoop=1;jettySize=auto;html=1;entryX=0.5;entryY=1;entryDx=0;entryDy=0;exitX=0.5;exitY=1;exitDx=0;exitDy=0;fontColor=#FF0000;strokeColor=#FF0000;" edge="1" parent="1" source="jSKqxpYO9cEE2zhA91dm-23" target="jSKqxpYO9cEE2zhA91dm-5">
          <mxGeometry relative="1" as="geometry">
            <mxPoint x="774.4610344827585" y="270.0010344827587" as="sourcePoint" />
            <mxPoint x="629.9999999999999" y="300.06" as="targetPoint" />
          </mxGeometry>
        </mxCell>
        <mxCell id="jSKqxpYO9cEE2zhA91dm-23" value="&lt;div&gt;&lt;span style=&quot;background-color: initial;&quot;&gt;&lt;br&gt;&lt;/span&gt;&lt;/div&gt;&lt;span style=&quot;background-color: initial;&quot;&gt;Est-ce une bonne page ?&lt;/span&gt;" style="rhombus;whiteSpace=wrap;html=1;verticalAlign=top;labelBackgroundColor=none;" vertex="1" parent="1">
          <mxGeometry x="760" y="182.87" width="80" height="80" as="geometry" />
        </mxCell>
        <mxCell id="jSKqxpYO9cEE2zhA91dm-25" value="" style="whiteSpace=wrap;html=1;verticalAlign=top;labelBackgroundColor=none;" vertex="1" parent="1">
          <mxGeometry x="930" y="306" width="120" height="60" as="geometry" />
        </mxCell>
        <mxCell id="jSKqxpYO9cEE2zhA91dm-27" value="no" style="text;html=1;align=center;verticalAlign=middle;resizable=0;points=[];autosize=1;strokeColor=none;fillColor=none;" vertex="1" parent="1">
          <mxGeometry x="690" y="278" width="40" height="30" as="geometry" />
        </mxCell>
        <mxCell id="jSKqxpYO9cEE2zhA91dm-28" value="" style="html=1;verticalLabelPosition=bottom;align=center;labelBackgroundColor=#ffffff;verticalAlign=top;strokeWidth=2;strokeColor=#FF8000;shadow=0;dashed=0;shape=mxgraph.ios7.icons.looking_glass;" vertex="1" parent="1">
          <mxGeometry x="430" y="288" width="20" height="20" as="geometry" />
        </mxCell>
        <mxCell id="jSKqxpYO9cEE2zhA91dm-36" value="" style="verticalLabelPosition=bottom;html=1;verticalAlign=top;strokeWidth=2;shape=mxgraph.lean_mapping.physical_pull;pointerEvents=1;strokeColor=#FF0000;rotation=-195;" vertex="1" parent="1">
          <mxGeometry x="703" y="234" width="32" height="32" as="geometry" />
        </mxCell>
        <mxCell id="jSKqxpYO9cEE2zhA91dm-38" value="" style="verticalLabelPosition=bottom;html=1;verticalAlign=top;strokeWidth=2;shape=mxgraph.lean_mapping.physical_pull;pointerEvents=1;strokeColor=#FF0000;rotation=-195;" vertex="1" parent="1">
          <mxGeometry x="328" y="454" width="32" height="32" as="geometry" />
        </mxCell>
        <mxCell id="jSKqxpYO9cEE2zhA91dm-39" value="" style="whiteSpace=wrap;html=1;verticalAlign=top;labelBackgroundColor=none;" vertex="1" parent="1">
          <mxGeometry x="724" y="490.56500000000005" width="120" height="60" as="geometry" />
        </mxCell>
        <mxCell id="jSKqxpYO9cEE2zhA91dm-42" value="61 rÃ©sultats de recherche&amp;nbsp;&lt;div&gt;per ce cas&lt;/div&gt;" style="text;html=1;align=center;verticalAlign=middle;resizable=0;points=[];autosize=1;strokeColor=none;fillColor=none;" vertex="1" parent="1">
          <mxGeometry x="504" y="560.56" width="160" height="40" as="geometry" />
        </mxCell>
        <mxCell id="jSKqxpYO9cEE2zhA91dm-44" value="" style="shape=image;html=1;verticalAlign=top;verticalLabelPosition=bottom;labelBackgroundColor=#ffffff;imageAspect=0;aspect=fixed;image=https://cdn4.iconfinder.com/data/icons/evil-icons-user-interface/64/Attention-128.png" vertex="1" parent="1">
          <mxGeometry x="479.44" y="560.56" width="30.56" height="30.56" as="geometry" />
        </mxCell>
      </root>
    </mxGraphModel>
  </diagram>
</mxfile>
